<?xml version="1.0" encoding="UTF-8"?><svg id="Layer_2" xmlns="http://www.w3.org/2000/svg" viewBox="0 0 863.56 277.07"><defs><style>.cls-1{fill:#0b3a4e;}</style></defs><g id="Layer_1-2"><g><path class="cls-1" d="M664.11,86.88h-21.42v-28.76h21.42v-18.66c0-29.67,16.82-39.46,44-39.46,7.65,0,15,.31,22.64,.92V30.92c-2.75-.26-5.5-.36-8.26-.31-11.93,0-16.22,3.67-16.22,13.16v14.35h24.53v28.76h-24.48V222.71h-42.21V86.88Z"/><path class="cls-1" d="M743.34,245c3.64,.61,7.31,.91,11,.91,15.6,0,21.42-8.56,22.64-23.25l-46.18-164.55h44.05l24.47,113.8h.61l21.42-113.8h42.21l-39.77,153.57c-14.68,56.9-24.16,64.85-63.32,64.85h-17.13v-31.53Z"/><path class="cls-1" d="M246.11,124.61c0-22.26,16.69-30,31.54-30,4.33,0,9,.31,13.3,.62V58.11h-25.58c-8.48,4.52-15.14,12.33-20.5,22.28h-.62v-22.27h-40.82V222.62h42.68V124.61Z"/><path class="cls-1" d="M412.77,104.82c0-21.95-5.16-39.09-27.78-46.71h-60.69c-18,6.48-30.28,20.83-30.28,47v4h38.35v-4.64c0-13,6.8-21.65,19.79-21.65,14.23,0,19.79,7.73,19.79,20.41,0,11.14-4.33,16.08-17,19.48l-24.12,6.5c-29.37,8-42.05,20.72-42.05,51.95,0,15.52,5.12,32.54,18.27,41.42h50.43c5.29-3.33,9.76-8.27,13.86-15.44h.66c1.1,4.92,2.19,10.57,4.36,15.44h40.91c-3.64-8.69-4.45-15.85-4.45-30.29l-.05-87.47Zm-40.77,69.27c0,18.24-14.84,25.66-26.28,25.66s-16.08-10.51-16.08-23.19c0-14.84,6.8-23.19,24.12-26.9,6.56-1.59,12.75-4.43,18.24-8.35v32.78Z"/><path class="cls-1" d="M502.3,94.61c4.33,0,9,.31,13.29,.62V58.11h-25.59c-8.48,4.52-15.15,12.33-20.5,22.28h-.62v-22.27h-40.8V222.62h42.67V124.62c0-22.27,16.7-30.01,31.55-30.01Z"/><path class="cls-1" d="M642.69,147.8v-9.58c0-40.28-7-69.55-34.35-80.11h-54.58c-32.51,11.72-38.17,45.67-38.17,81.65,0,32.43,1.52,68.65,31.83,82.86h64c18.65-9,27.76-27.52,28.82-54.1h-38.37c-2.47,20.41-8.35,31.23-22.57,31.23-15.77,0-21-19.17-21-38.65v-13.3h84.39Zm-84.42-31.8c0-15.46,5-33.09,22-33.09s20.72,14.23,21.64,39.58h-43.6l-.04-6.49Z"/><polygon class="cls-1" points="183.88 58.11 146.14 58.11 146.14 133.07 133.38 146.88 95.82 106.22 140.26 58.11 88.88 58.11 70.13 78.41 51.38 58.11 0 58.11 44.44 106.22 19.63 133.07 19.63 222.71 57.37 222.71 57.37 147.84 70.13 134.03 107.69 174.69 63.33 222.71 114.71 222.71 133.38 202.5 152.05 222.71 203.43 222.71 159.07 174.69 183.88 147.84 183.88 58.11"/><g><path class="cls-1" d="M415.27,275.55c-1.47,.74-4.42,1.47-8.2,1.47-8.75,0-15.34-5.53-15.34-15.71s6.59-16.31,16.22-16.31c3.87,0,6.31,.83,7.37,1.38l-.97,3.27c-1.52-.74-3.69-1.29-6.27-1.29-7.28,0-12.12,4.65-12.12,12.81,0,7.6,4.38,12.49,11.93,12.49,2.44,0,4.93-.51,6.54-1.29l.83,3.18Z"/><path class="cls-1" d="M452.71,260.71c0,10.69-6.5,16.36-14.42,16.36s-13.96-6.36-13.96-15.76c0-9.86,6.13-16.31,14.42-16.31s13.96,6.5,13.96,15.71Zm-24.1,.51c0,6.64,3.59,12.58,9.91,12.58s9.95-5.85,9.95-12.9c0-6.17-3.23-12.63-9.91-12.63s-9.95,6.13-9.95,12.95Z"/><path class="cls-1" d="M465.63,276.56v-31.06h4.38l9.95,15.71c2.3,3.64,4.1,6.91,5.58,10.09l.09-.05c-.37-4.15-.46-7.92-.46-12.76v-12.99h3.78v31.06h-4.05l-9.86-15.76c-2.17-3.46-4.24-7-5.81-10.37l-.14,.05c.23,3.92,.32,7.65,.32,12.81v13.27h-3.78Z"/><path class="cls-1" d="M502.69,271.68c1.8,1.11,4.42,2.03,7.19,2.03,4.1,0,6.5-2.17,6.5-5.3,0-2.9-1.66-4.56-5.85-6.17-5.07-1.8-8.2-4.42-8.2-8.8,0-4.84,4.01-8.43,10.04-8.43,3.18,0,5.48,.74,6.87,1.52l-1.11,3.27c-1.01-.55-3.09-1.47-5.9-1.47-4.24,0-5.85,2.53-5.85,4.65,0,2.9,1.89,4.33,6.17,5.99,5.25,2.03,7.92,4.56,7.92,9.12,0,4.79-3.55,8.94-10.87,8.94-3,0-6.27-.88-7.93-1.98l1.01-3.36Z"/><path class="cls-1" d="M536.57,245.51v18.38c0,6.96,3.09,9.91,7.23,9.91,4.61,0,7.56-3.04,7.56-9.91v-18.38h4.05v18.11c0,9.54-5.02,13.45-11.75,13.45-6.36,0-11.15-3.64-11.15-13.27v-18.29h4.05Z"/><path class="cls-1" d="M569.82,245.51h4.01v27.69h13.27v3.36h-17.28v-31.06Z"/><path class="cls-1" d="M601.51,248.92h-9.45v-3.41h22.99v3.41h-9.49v27.65h-4.05v-27.65Z"/><path class="cls-1" d="M630.27,245.51v31.06h-4.01v-31.06h4.01Z"/><path class="cls-1" d="M644.73,276.56v-31.06h4.38l9.95,15.71c2.3,3.64,4.1,6.91,5.57,10.09l.09-.05c-.37-4.15-.46-7.92-.46-12.76v-12.99h3.78v31.06h-4.05l-9.86-15.76c-2.17-3.46-4.24-7-5.81-10.37l-.14,.05c.23,3.92,.32,7.65,.32,12.81v13.27h-3.78Z"/><path class="cls-1" d="M706.32,275.18c-1.8,.64-5.34,1.7-9.54,1.7-4.7,0-8.57-1.2-11.61-4.1-2.67-2.58-4.33-6.73-4.33-11.56,.05-9.26,6.4-16.03,16.82-16.03,3.59,0,6.4,.78,7.74,1.43l-.97,3.27c-1.66-.74-3.73-1.34-6.86-1.34-7.56,0-12.49,4.7-12.49,12.49s4.75,12.53,11.98,12.53c2.63,0,4.42-.37,5.34-.83v-9.26h-6.31v-3.23h10.23v14.93Z"/></g></g></g></svg>